# xmcd CD database file
#
# Track frame offsets:
#	150
#	14728
#	26417
#	38393
#	44944
#	66190
#	87385
#	109957
#	136686
#	155268
#	161816
#	182447
#	208065
#	231051
#	245719
#	250246
#	267846
#	290291
#	306851
#	324962
#
# Disc length: 4709 seconds
#
# Revision: 2
# Processed by: cddbd v1.5.2PL0 Copyright (c) Steve Scherf et al.
# Submitted via: CDex 1.70beta3
#
DISCID=17126314
DTITLE=古代祐三 - 「セブンスドラゴン」オリジナル・サウンドトラック Disc01
DYEAR=2009
DGENRE=Game
TTITLE0=始まりの冒険者
TTITLE1=英雄王の居城／カザン共和国
TTITLE2=よりどりみどり
TTITLE3=旅路-旅立ちの大地
TTITLE4=戦場-刀剣弾け散る
TTITLE5=迷宮-妖華領域
TTITLE6=戦場-立ちはだかるもの
TTITLE7=現れいでる
TTITLE8=華に沈む、世界
TTITLE9=物語は、始まった
TTITLE10=美しき箱庭／ミロス連邦国
TTITLE11=旅路-竜と花の大地
TTITLE12=迷宮-地下洞穴
TTITLE13=戦場-荒れ狂うもの
TTITLE14=討ち果たす
TTITLE15=英雄達の凱旋
TTITLE16=迷宮-密林航行
TTITLE17=やすらぎの宿
TTITLE18=迷宮-古代遺跡
TTITLE19=獅子の眠る地／アイゼン皇国
EXTD=YEAR: 2009
EXTT0=
EXTT1=
EXTT2=
EXTT3=
EXTT4=
EXTT5=
EXTT6=
EXTT7=
EXTT8=
EXTT9=
EXTT10=
EXTT11=
EXTT12=
EXTT13=
EXTT14=
EXTT15=
EXTT16=
EXTT17=
EXTT18=
EXTT19=
PLAYORDER=
